<?xml version="1.0" encoding="UTF-8"?><svg xmlns="http://www.w3.org/2000/svg" xmlns:xlink="http://www.w3.org/1999/xlink" fill-opacity="1" color-rendering="auto" color-interpolation="auto" text-rendering="auto" stroke="black" stroke-linecap="square" width="812" stroke-miterlimit="10" shape-rendering="auto" stroke-opacity="1" fill="black" stroke-dasharray="none" font-weight="normal" stroke-width="1" height="247" font-family="'Dialog'" font-style="normal" stroke-linejoin="miter" font-size="12px" stroke-dashoffset="0" image-rendering="auto">
  <!--Generated by ySVG 2.6-->
  <defs id="genericDefs"/>
  <g>
    <defs id="defs1">
      <clipPath clipPathUnits="userSpaceOnUse" id="clipPath1">
        <path d="M0 0 L812 0 L812 247 L0 247 L0 0 Z"/>
      </clipPath>
    </defs>
    <g id="y.node.0">
      <a target="_blank" xlink:type="simple" xlink:href="brainyvoyage.com" xlink:show="new">
        <g fill="rgb(255,204,0)" text-rendering="geometricPrecision" shape-rendering="geometricPrecision" transform="matrix(1,0,0,1,-159,-135)" stroke="rgb(255,204,0)">
          <rect x="174" y="150" width="337" rx="4" ry="4" height="43" stroke="none"/>
        </g>
        <g text-rendering="geometricPrecision" stroke-miterlimit="1.45" stroke-dasharray="6,2" shape-rendering="geometricPrecision" transform="matrix(1,0,0,1,-159,-135)" stroke-linecap="butt">
          <rect x="174" y="150" fill="none" width="337" rx="4" ry="4" height="43"/>
        </g>
        <g>
          <g stroke-linecap="butt" transform="matrix(1,0,0,1,-159,-135)" fill="white" text-rendering="geometricPrecision" font-family="sans-serif" shape-rendering="geometricPrecision" stroke="white" stroke-miterlimit="1.45">
            <text x="312.5" xml:space="preserve" y="176.2139" stroke="none">INTERNET</text>
          </g>
        </g>
      </a>
    </g>
    <g id="y.node.1">
      <g fill="rgb(255,204,0)" text-rendering="geometricPrecision" shape-rendering="geometricPrecision" transform="matrix(1,0,0,1,-159,-135)" stroke="rgb(255,204,0)">
        <rect x="664" y="150" width="292" rx="4" ry="4" height="43" stroke="none"/>
      </g>
      <g text-rendering="geometricPrecision" stroke-miterlimit="1.45" stroke-dasharray="6,2" shape-rendering="geometricPrecision" transform="matrix(1,0,0,1,-159,-135)" stroke-linecap="butt">
        <rect x="664" y="150" fill="none" width="292" rx="4" ry="4" height="43"/>
      </g>
      <g>
        <g stroke-linecap="butt" transform="matrix(1,0,0,1,-159,-135)" fill="white" text-rendering="geometricPrecision" font-family="sans-serif" shape-rendering="geometricPrecision" stroke="white" stroke-miterlimit="1.45">
          <text x="768.3164" xml:space="preserve" y="176.2139" stroke="none">What is internet</text>
        </g>
      </g>
    </g>
    <g id="y.node.2">
      <g fill="rgb(255,204,0)" text-rendering="geometricPrecision" shape-rendering="geometricPrecision" transform="matrix(1,0,0,1,-159,-135)" stroke="rgb(255,204,0)">
        <rect x="664" y="209" width="292" rx="4" ry="4" height="43" stroke="none"/>
      </g>
      <g text-rendering="geometricPrecision" stroke-miterlimit="1.45" stroke-dasharray="6,2" shape-rendering="geometricPrecision" transform="matrix(1,0,0,1,-159,-135)" stroke-linecap="butt">
        <rect x="664" y="209" fill="none" width="292" rx="4" ry="4" height="43"/>
      </g>
      <g>
        <g stroke-linecap="butt" transform="matrix(1,0,0,1,-159,-135)" fill="white" text-rendering="geometricPrecision" font-family="sans-serif" shape-rendering="geometricPrecision" stroke="white" stroke-miterlimit="1.45">
          <text x="748.9746" xml:space="preserve" y="235.2139" stroke="none">How the internet works</text>
        </g>
      </g>
    </g>
    <g id="y.node.3">
      <g fill="rgb(255,204,0)" text-rendering="geometricPrecision" shape-rendering="geometricPrecision" transform="matrix(1,0,0,1,-159,-135)" stroke="rgb(255,204,0)">
        <rect x="664" y="264" width="292" rx="4" ry="4" height="43" stroke="none"/>
      </g>
      <g text-rendering="geometricPrecision" stroke-miterlimit="1.45" stroke-dasharray="6,2" shape-rendering="geometricPrecision" transform="matrix(1,0,0,1,-159,-135)" stroke-linecap="butt">
        <rect x="664" y="264" fill="none" width="292" rx="4" ry="4" height="43"/>
      </g>
      <g>
        <g stroke-linecap="butt" transform="matrix(1,0,0,1,-159,-135)" fill="white" text-rendering="geometricPrecision" font-family="sans-serif" shape-rendering="geometricPrecision" stroke="white" stroke-miterlimit="1.45">
          <text x="746.3174" xml:space="preserve" y="290.2139" stroke="none">What is meant by HTTP</text>
        </g>
      </g>
    </g>
    <g id="y.node.4">
      <g fill="rgb(255,204,0)" text-rendering="geometricPrecision" shape-rendering="geometricPrecision" transform="matrix(1,0,0,1,-159,-135)" stroke="rgb(255,204,0)">
        <rect x="664" y="324" width="292" rx="4" ry="4" height="43" stroke="none"/>
      </g>
      <g text-rendering="geometricPrecision" stroke-miterlimit="1.45" stroke-dasharray="6,2" shape-rendering="geometricPrecision" transform="matrix(1,0,0,1,-159,-135)" stroke-linecap="butt">
        <rect x="664" y="324" fill="none" width="292" rx="4" ry="4" height="43"/>
      </g>
      <g>
        <g stroke-linecap="butt" transform="matrix(1,0,0,1,-159,-135)" fill="white" text-rendering="geometricPrecision" font-family="sans-serif" shape-rendering="geometricPrecision" stroke="white" stroke-miterlimit="1.45">
          <text x="748.9746" xml:space="preserve" y="350.2139" stroke="none">How the internet works</text>
        </g>
      </g>
    </g>
    <g id="y.edge.0">
      <g stroke-linecap="round" transform="matrix(1,0,0,1,-159,-135)" stroke-dashoffset="2" text-rendering="geometricPrecision" shape-rendering="geometricPrecision" stroke-dasharray="0,4" stroke-miterlimit="1.45">
        <path fill="none" d="M510.9929 171.5 L663.9639 171.5"/>
      </g>
    </g>
    <g id="y.edge.1">
      <g stroke-linecap="round" transform="matrix(1,0,0,1,-159,-135)" stroke-dashoffset="2" text-rendering="geometricPrecision" shape-rendering="geometricPrecision" stroke-dasharray="0,4" stroke-miterlimit="1.45">
        <path fill="none" d="M510.9942 180.5103 L540.2351 182.074 L549.72 183.9803 L558.2034 188.6312 L587.2943 210.5816 L595.3292 215.9182 L603.4688 219.8816 L603.4688 219.8816 L616.1664 225.0016 L616.1664 225.0016 L630.6232 227.8315 L647.5848 229.5133 L660.7557 230.5 L663.9755 230.5"/>
      </g>
    </g>
    <g id="y.edge.2">
      <g stroke-linecap="round" transform="matrix(1,0,0,1,-159,-135)" stroke-dashoffset="2" fill="rgb(255,102,0)" text-rendering="geometricPrecision" shape-rendering="geometricPrecision" stroke-dasharray="0,4" stroke="rgb(255,102,0)" stroke-miterlimit="1.45">
        <path fill="none" d="M510.9819 187.2108 L526.3376 188.6427 L535.3824 191.2787 L542.6035 197.3297 L590.6061 256.3599 L597.4012 263.5905 L605.1683 269.7653 L612.0093 274.446 L620.6096 279.344 L629.9044 282.7446 L639.9232 285.5 L649.9232 285.5 L663.9648 285.5"/>
      </g>
    </g>
  </g>
</svg>
